<?xml version="1.0" encoding="UTF-8" standalone="no"?>
<!DOCTYPE svg PUBLIC "-//W3C//DTD SVG 1.1//EN" "http://www.w3.org/Graphics/SVG/1.1/DTD/svg11.dtd">
<svg width="100%" height="100%" viewBox="0 0 2304 868" version="1.1" xmlns="http://www.w3.org/2000/svg" xmlns:xlink="http://www.w3.org/1999/xlink" xml:space="preserve" xmlns:serif="http://www.serif.com/" style="fill-rule:evenodd;clip-rule:evenodd;stroke-linejoin:round;stroke-miterlimit:2;">
    <g transform="matrix(1,0,0,1,-615,-302)">
        <g id="Artboard2" transform="matrix(2.08195,0,0,1.78379,6004.84,5453.52)">
            <rect x="-2884.24" y="-3057.27" width="2927.55" height="1311.03" style="fill:none;"/>
            <g id="g496">
            </g>
            <g id="path330" transform="matrix(0.480319,0,0,0.560604,-2757.96,-2998.58)">
                <path d="M2656.43,1064.61L2656.43,197.138L352.151,197.138L352.151,1064.61L2656.43,1064.61ZM2579.93,273.638L2579.93,988.114C2579.93,988.114 428.651,988.114 428.651,988.114C428.651,988.114 428.651,273.638 428.651,273.638C428.651,273.638 2579.93,273.638 2579.93,273.638L2579.93,273.638ZM1303.88,858.035C1314.89,858.035 1323.84,866.98 1323.84,877.998C1323.84,889.016 1314.89,897.961 1303.88,897.961C1292.86,897.961 1283.91,889.016 1283.91,877.998C1283.91,866.98 1292.86,858.035 1303.88,858.035ZM1921.63,857.558C1932.65,857.558 1941.59,866.503 1941.59,877.521C1941.59,888.539 1932.65,897.484 1921.63,897.484C1910.61,897.484 1901.67,888.539 1901.67,877.521C1901.67,866.503 1910.61,857.558 1921.63,857.558ZM1921.63,802.206C1932.65,802.206 1941.59,811.151 1941.59,822.169C1941.59,833.186 1932.65,842.131 1921.63,842.131C1910.61,842.131 1901.67,833.186 1901.67,822.169C1901.67,811.151 1910.61,802.206 1921.63,802.206ZM1337.3,802.206C1348.31,802.206 1357.26,811.151 1357.26,822.169C1357.26,833.186 1348.31,842.131 1337.3,842.131C1326.28,842.131 1317.33,833.186 1317.33,822.169C1317.33,811.151 1326.28,802.206 1337.3,802.206ZM1270.45,802.206C1281.47,802.206 1290.42,811.151 1290.42,822.169C1290.42,833.186 1281.47,842.131 1270.45,842.131C1259.44,842.131 1250.49,833.186 1250.49,822.169C1250.49,811.151 1259.44,802.206 1270.45,802.206ZM1715.36,802.206C1726.38,802.206 1735.33,811.151 1735.33,822.169C1735.33,833.186 1726.38,842.131 1715.36,842.131C1704.35,842.131 1695.4,833.186 1695.4,822.169C1695.4,811.151 1704.35,802.206 1715.36,802.206ZM1115.79,802.206L1018.66,802.206L1018.66,825.391L1115.79,825.391L1115.79,802.206ZM2173.55,802.206L2076.42,802.206L2076.42,825.391L2173.55,825.391L2173.55,802.206ZM765.365,484.366C754.195,484.079 725.436,554.668 753.159,577.29C760.417,583.212 777.623,580.197 781.894,588.925C785.008,595.29 778.093,606.722 777.909,613.771C777.513,628.963 782.527,642.31 789.917,655.513C798.062,670.064 822.919,678.422 822.228,697.258C821.246,724.051 764.528,735.939 745.724,745.987C745.304,746.217 745.041,746.656 745.037,747.135C744.888,767.256 745.87,789.345 746.306,816.303C746.313,816.748 746.544,817.159 746.919,817.397C747.294,817.635 747.763,817.669 748.169,817.487C784.731,801.171 873.587,765.037 888.915,731.227C895.703,716.256 895.225,693.816 897.897,677.778C901.587,655.626 907.462,633.551 915.004,612.38C925.623,582.566 958.226,561.946 949.688,526.109C941.988,493.79 888.309,517.023 879.464,487.149C869.051,489.308 867.634,496.417 864.117,505.238C857.435,521.996 849.956,558.248 864.476,573.121C873.124,581.981 901.312,574.781 899.024,592.899C897.349,606.179 882.785,621.268 876.717,633.251C866.308,653.805 859.46,679.096 853.027,701.433L850.244,701.433C843.427,686.141 844.975,668.831 836.032,654.123C823.948,634.249 800.802,622.903 799.019,597.074C797.525,575.42 820.165,592.761 827.184,580.176C838.623,559.664 844.252,526.44 815.061,509.656C806.758,504.881 795.173,508.867 786.474,504.223C777.383,499.371 773.51,489.272 765.365,484.366L765.365,484.366ZM2191.16,766.809C2204.87,780.04 2233.06,720.631 2228.62,711.459C2217.38,688.251 2178.12,658.609 2175.66,631.86C2174.32,617.477 2187.08,590.953 2201.35,586.83C2207.37,585.089 2220.7,589.54 2224.88,585.082C2229.62,580.014 2228.78,568.727 2229.56,562.287C2232.03,542.238 2238.85,523.304 2217.66,514.492C2206.82,509.982 2183.03,510.853 2177.69,501.063C2159.74,468.141 2149,514.414 2145.03,530.284C2143.11,537.987 2139.86,544.505 2142.89,552.547C2145.7,559.939 2151.14,566.978 2158.21,570.56C2163.33,573.148 2173.17,574.696 2174.52,581.431C2175.92,588.474 2164.05,601.374 2156.59,609.724C2156.29,610.061 2155.87,610.26 2155.41,610.271C2154.97,610.283 2154.53,610.107 2154.22,609.786C2139.66,594.733 2105.12,554.194 2068.13,513.586C2061.22,506.006 2061.68,483.342 2045.5,493.903C2016.97,512.53 2012.94,552.226 2031.26,577.51C2036.27,584.434 2057.72,595.898 2057.58,604.642C2057.48,610.756 2049.79,615.463 2046.1,619.462C2036.78,629.525 2026.79,640.619 2022.95,654.123C2014.6,683.487 2034.86,707.071 2035.58,734.828C2035.73,740.62 2026.15,746.106 2021.9,750.714C2021.79,750.841 2021.72,751.005 2021.72,751.176C2021.69,754.006 2021.75,758.24 2021.73,762.424C2021.73,762.612 2021.8,762.792 2021.93,762.924C2022.06,763.057 2022.24,763.131 2022.43,763.13C2030.75,763.107 2079.29,763.329 2095.24,763.046C2100.73,758.63 2101.13,742.618 2101.16,736.219C2101.3,707.597 2084.8,685.438 2072.05,660.844C2068.02,653.053 2053.49,631.299 2067.92,625.53C2078.97,621.112 2096.75,648.125 2102.39,655.515C2122.2,681.472 2183.07,758.995 2191.16,766.809ZM1262.11,690.301C1252.37,663.059 1239.88,638.13 1242.87,608.205C1243.65,600.44 1245.48,588.576 1253.79,585.39C1259.05,583.373 1267.78,586.937 1271.25,581.325C1273.98,576.918 1273.37,570.059 1274.05,565.07C1276.04,550.472 1281.67,522.674 1268.61,511.712C1259.66,504.2 1248.23,509.575 1238.51,505.926C1231.41,503.262 1224.01,490.335 1216.25,491.407C1210.49,492.204 1206.93,500.459 1205.38,505.238C1200.45,520.382 1198.35,538.083 1199.63,553.939C1200.25,561.562 1203.94,572.612 1209.93,577.746C1214.69,581.825 1221.81,581 1222.71,588.746C1224.54,604.537 1217.97,622.315 1219.1,638.817C1221,666.496 1235.61,743.091 1241.27,766.071C1253.6,769.012 1357.76,767.846 1364.67,761.037C1373.27,752.575 1451.86,586.037 1458.14,558.113C1460.93,545.74 1462.09,529.185 1452.45,519.444C1441.05,507.927 1422.71,506.59 1409.61,497.305C1405.45,494.358 1399.94,489.929 1394.72,493.178C1390.64,495.719 1389.72,502.509 1387.9,506.629C1380.93,522.429 1378.21,539.531 1379.05,556.721C1379.56,567.079 1385.34,577.401 1395.69,580.649C1403.02,582.948 1417.78,580.401 1419.27,591.515C1420.02,597.124 1413.21,600.984 1409.9,604.427C1404.14,610.447 1400.99,619.136 1396.82,626.294C1386.66,643.729 1376.26,677.331 1358.12,687.255C1347.66,692.974 1334.81,691.692 1323.34,691.692C1316.96,691.692 1308.57,693.077 1302.53,690.666C1298.63,689.103 1296.39,685.914 1297.36,681.714C1300.31,668.987 1325.39,605.638 1334.66,591.825C1340.09,583.743 1353.29,589.339 1359.4,581.219C1368.99,568.467 1373.58,528.423 1361.56,516.556C1352.69,507.806 1341.53,508.761 1330.3,506.171C1322.32,504.332 1316.67,489.918 1308.42,492.19C1301.12,494.203 1297.72,502.922 1296.04,509.412C1291.8,525.756 1287.83,542.516 1290.56,559.504C1291.56,565.744 1293.41,573.596 1298.77,577.582C1303.9,581.406 1311.23,580.963 1312.55,588.732C1313.9,596.759 1271.32,685.903 1262.11,690.301ZM1145.23,590.116C1145.79,617.36 1163.89,672.385 1131.32,689.504C1122.84,693.959 1110.02,691.692 1100.71,691.692C1077.51,691.692 1054.3,691.588 1031.13,691.691C1022.36,691.728 1002.39,687.937 996.768,696.415C989.303,707.664 980.165,755.968 978.424,765.454C978.35,765.855 978.458,766.267 978.719,766.58C978.981,766.893 979.367,767.074 979.775,767.073C996.489,767.066 1135.12,766.875 1145.16,762.805C1160.62,756.531 1162.49,720.962 1165.62,706.998C1175.87,661.291 1172.02,615.034 1166.32,569.245C1164.09,551.332 1161.76,523.571 1146.2,511.464C1136.71,504.081 1122.73,508.002 1111.84,508.021C1085.28,508.063 1057.49,510.275 1031.13,507.026C1027.65,506.595 1023.5,506.937 1020.42,504.989C1013.97,500.913 1007.4,482.836 997.938,495.703C985.321,512.868 982.246,550.824 989.868,570.455C992.655,577.634 1003.66,576.429 1004.36,584.612C1005.07,592.781 999.1,600.933 996.242,608.205C991.539,620.175 988.806,632.916 987.309,645.649C986.556,652.068 984.326,663.593 991.098,667.434C1007.47,676.722 1015.43,650.059 1031.13,648.709C1037.82,648.134 1045.25,649.851 1049.21,655.665C1052.75,660.842 1052.9,668.504 1060.37,669.873C1076,672.737 1076.28,632.411 1072.94,623.513C1067.47,608.926 1052.79,610.408 1039.48,609.474C1034.05,609.093 1024.67,609.675 1021.96,603.829C1014.33,587.363 1036.92,581.839 1047.83,581.769C1072.17,581.612 1097.32,578.688 1121.58,582.185C1130.07,583.409 1137.05,588.245 1145.23,590.116L1145.23,590.116ZM1646.08,502.84C1637.8,501.101 1631.43,474.267 1620.33,498.342C1611.99,516.445 1611.31,540.369 1612.89,559.504C1614.3,576.502 1634.76,577.024 1635.99,591.509C1637.34,607.34 1629.36,625.085 1629.67,641.6C1630.19,668.091 1641.36,756.431 1648.37,763.015C1652.98,767.354 1764.67,769.648 1776.18,758.965C1784.83,750.929 1836.94,633.968 1819.92,565.07C1814.76,544.142 1812.47,516.871 1792.13,508.033C1787.44,505.993 1781.93,506.765 1776.95,506.413C1735.18,503.459 1717.68,543.121 1707.78,577.593C1705.03,587.201 1696.34,606.769 1701.85,616.291C1704.72,621.247 1710.51,622.538 1714.04,617.732C1719.61,610.154 1721,600.356 1727.39,593.028C1740.48,578.004 1765.2,574.48 1781.12,586.682C1807.79,607.11 1799.37,667.958 1772.72,685.872C1763.86,691.833 1753.85,691.692 1743.56,691.692C1724.07,691.692 1699.9,695.588 1680.94,690.707C1654.23,683.828 1651.22,639.239 1651.74,616.554C1651.92,608.636 1652.9,599.688 1657.25,592.899C1660.31,588.119 1665.06,582.462 1671.2,582.391C1677.47,582.32 1684.64,588.078 1690.08,582.695C1694.47,578.353 1695.06,569.464 1696.24,563.678C1699.97,545.411 1701.9,522.469 1683.13,511.525C1672.4,505.265 1656.55,505.037 1646.08,502.84ZM1885.62,491.625C1879.18,494.223 1876.65,504.926 1874.59,510.803C1867.49,531.024 1865.53,555.056 1879.85,573.121C1893.97,590.928 1923.23,585.338 1939.67,585.454C1939.84,594.755 1940.46,670.958 1941.19,688.275C1941.21,688.66 1941.07,689.035 1940.8,689.315C1940.54,689.594 1940.17,689.752 1939.79,689.752C1926.02,689.741 1873.21,689.599 1863.3,689.729C1862.6,689.75 1862.03,690.28 1861.95,690.974C1860.61,702.503 1856.53,732.446 1850.55,762.652C1850.49,762.956 1850.57,763.272 1850.76,763.516C1850.95,763.761 1851.24,763.91 1851.55,763.926C1867.23,764.562 1963.02,766.367 1970.24,763.66C1979.06,760.348 1980.52,748.443 1982.04,740.393C1986.51,716.691 1983.18,696.514 1977.15,673.604C1972.44,655.636 1970.57,632.072 1970.48,613.771C1970.41,599.226 1970.42,582.5 1972.16,567.853C1973.9,553.043 1979.44,527.303 1967.28,515.451C1953.89,502.413 1931.29,509.905 1914.71,507.424C1905.59,506.06 1892.16,488.987 1885.62,491.625L1885.62,491.625ZM1514.8,507.315C1509.46,504.92 1499.53,489.772 1493.24,492.362C1486.93,494.962 1484.68,504.744 1483.77,510.803C1481.53,525.841 1474.41,561.697 1486.74,573.712C1497.99,584.674 1516.53,581.605 1530.66,581.773C1538.5,581.866 1548.58,582.273 1552.68,590.143C1561.01,606.131 1543.23,620.693 1536.03,631.985C1533.17,636.47 1531.83,644.628 1537.83,647.114C1549.86,652.103 1562.76,633.427 1567.75,624.903C1583.87,597.388 1592.98,564.532 1584.1,533.067C1573.49,495.424 1529.95,514.099 1514.8,507.315ZM1441.21,433.016C1452.23,433.016 1461.17,441.961 1461.17,452.978C1461.17,463.996 1452.23,472.941 1441.21,472.941C1430.19,472.941 1421.25,463.996 1421.25,452.978C1421.25,441.961 1430.19,433.016 1441.21,433.016Z" style="fill:rgb(100,17,99);fill-rule:nonzero;"/>
            </g>
        </g>
    </g>
</svg>
